<svg width="70" height="70" viewBox="0 0 70 70" fill="none" xmlns="http://www.w3.org/2000/svg">
<path d="M26.25 64.1667H29.1667V58.3334H26.2821C25.3837 58.3159 17.5 57.8288 17.5 46.6667C17.5 40.8538 15.5604 37.1992 13.1192 35C15.5604 32.8009 17.5 29.1463 17.5 23.3334C17.5 12.1713 25.3837 11.6842 26.25 11.6667H29.1667V5.83337H26.2442C21.2012 5.84504 11.6667 9.52004 11.6667 23.3334C11.6667 31.5 6.7725 32.0542 5.7925 32.0834L5.83333 37.9167C6.0725 37.9167 11.6667 38.0159 11.6667 46.6667C11.6667 60.48 21.2012 64.155 26.25 64.1667ZM64.1667 32.0834C63.9275 32.0834 58.3333 31.9842 58.3333 23.3334C58.3333 9.52004 48.7987 5.84504 43.75 5.83337H40.8333V11.6667H43.7179C44.6162 11.6842 52.5 12.1713 52.5 23.3334C52.5 29.1463 54.4396 32.8009 56.8808 35C54.4396 37.1992 52.5 40.8538 52.5 46.6667C52.5 57.8288 44.6162 58.3159 43.75 58.3334H40.8333V64.1667H43.7558C48.7987 64.155 58.3333 60.48 58.3333 46.6667C58.3333 38.5 63.2275 37.9459 64.2075 37.9167L64.1667 32.0834Z" fill="#7510F7"/>
</svg>
