<svg width="70" height="70" viewBox="0 0 70 70" fill="none" xmlns="http://www.w3.org/2000/svg">
<path d="M61.1625 21.2041C61.4328 20.9343 61.6474 20.6138 61.7937 20.2609C61.9401 19.9081 62.0154 19.5299 62.0154 19.1479C62.0154 18.7659 61.9401 18.3876 61.7937 18.0348C61.6474 17.682 61.4328 17.3615 61.1625 17.0916L52.9083 8.83746C52.6385 8.56707 52.318 8.35256 51.9651 8.2062C51.6123 8.05983 51.234 7.9845 50.8521 7.9845C50.4701 7.9845 50.0918 8.05983 49.739 8.2062C49.3861 8.35256 49.0656 8.56707 48.7958 8.83746L35.7 21.9333L24.3542 10.5875C22.0792 8.31246 18.375 8.31246 16.1 10.5875L10.5583 16.1291C8.28333 18.4041 8.28333 22.1083 10.5583 24.3833L21.9042 35.7291L8.75 48.8833V61.25H21.1167L34.3 48.0666L45.6458 59.4125C48.4166 62.1833 52.15 61.1625 53.9 59.4125L59.4416 53.8708C61.7166 51.5958 61.7166 47.8916 59.4416 45.6166L48.0958 34.2708L61.1625 21.2041ZM14.7 20.2416L20.2125 14.7L23.9167 18.4041L20.475 21.875L24.5875 25.9875L28.0583 22.5166L31.5583 26.0166L26.0167 31.5583L14.7 20.2416ZM47.4541 41.9416L43.9833 45.4125L48.0958 49.525L51.5666 46.0541L55.2708 49.7583L49.7291 55.3L38.3833 43.9541L43.925 38.4125L47.4541 41.9416ZM18.6958 55.4166H14.5833V51.3041L42.6125 23.275L46.4041 27.0666L46.725 27.3875L18.6958 55.4166ZM46.725 19.1333L50.8375 15.0208L54.95 19.1333L50.8375 23.2458L46.725 19.1333Z" fill="#7510F7"/>
</svg>
