<svg width="70" height="70" viewBox="0 0 70 70" fill="none" xmlns="http://www.w3.org/2000/svg">
<path d="M61.7852 11.6666H8.21477C6.89953 11.6666 5.83331 12.7328 5.83331 14.0481V55.9518C5.83331 57.2671 6.89953 58.3333 8.21477 58.3333H61.7852C63.1004 58.3333 64.1667 57.2671 64.1667 55.9518V14.0481C64.1667 12.7328 63.1004 11.6666 61.7852 11.6666Z" stroke="#7510F7" stroke-width="4"/>
<path d="M23.3333 27.6324C20.4166 23.3332 15.3096 26.1595 15.6756 30.5782C16.0416 34.9999 21.875 34.9999 22.2381 39.4216C22.6041 43.8418 17.5 46.6666 14.5833 42.3674" stroke="#7510F7" stroke-width="4" stroke-linecap="round" stroke-linejoin="round"/>
<path d="M37.9166 26.25H32.0833V45.2083H37.9166" stroke="#7510F7" stroke-width="4" stroke-linecap="round" stroke-linejoin="round"/>
<path d="M32.0833 36.4583H37.9166" stroke="#7510F7" stroke-width="4" stroke-linecap="round" stroke-linejoin="round"/>
<path d="M55.4166 30.625C55.4166 28.2088 53.4579 26.25 51.0416 26.25C48.6254 26.25 46.6666 28.2088 46.6666 30.625V40.8333C46.6666 43.2496 48.6254 45.2083 51.0416 45.2083C53.4579 45.2083 55.4166 43.2496 55.4166 40.8333V30.625Z" stroke="#7510F7" stroke-width="4" stroke-linecap="round" stroke-linejoin="round"/>
</svg>
